<?xml version="1.0" encoding="iso-8859-1"?>
<!-- Uploaded to: SVG Repo, www.svgrepo.com, Generator: SVG Repo Mixer Tools -->
<svg version="1.1" id="Layer_1" xmlns="http://www.w3.org/2000/svg" xmlns:xlink="http://www.w3.org/1999/xlink" 
	 viewBox="0 0 512 512" xml:space="preserve">
<g>
	<rect x="113.232" y="220.181" style="fill:#999999;" width="298.296" height="164.85"/>
	<path style="fill:#999999;" d="M306.534,186.333v33.853h104.993v-21.588c0-5.961,4.832-10.794,10.794-10.794h52.006v-33.363
		H338.424C320.812,154.442,306.534,168.72,306.534,186.333z"/>
</g>
<g>
	<rect x="474.324" y="137.761" style="fill:#4D4D4D;" width="27.475" height="66.723"/>
	<path style="fill:#4D4D4D;" d="M46.505,168.179h75.556v-41.212H46.505c-11.38,0-20.606,9.225-20.606,20.606l0,0
		C25.899,158.954,35.125,168.179,46.505,168.179z"/>
	<rect x="178.925" y="292.799" style="fill:#4D4D4D;" width="166.91" height="92.242"/>
	<polygon style="fill:#4D4D4D;" points="10.199,230.503 10.199,374.311 44.543,372.271 44.543,232.542 	"/>
</g>
<polygon style="fill:#999999;" points="113.23,254.177 44.543,232.542 44.543,372.271 113.23,351.043 "/>
<path d="M421.726,198.598c0-0.327,0.266-0.595,0.595-0.595h41.807v6.482c0,5.633,4.566,10.199,10.199,10.199h27.475
	c5.633,0,10.199-4.566,10.199-10.199v-66.724c0-5.633-4.566-10.199-10.199-10.199h-27.475c-5.633,0-10.199,4.566-10.199,10.199
	v6.482H338.424c-23.208,0-42.09,18.881-42.09,42.089v23.654h-36.513v-0.43c0-40.342-32.821-73.162-73.162-73.162H132.26v-9.426
	c0-5.633-4.566-10.199-10.199-10.199H46.505c-16.986,0-30.806,13.819-30.806,30.806s13.819,30.806,30.806,30.806h75.556
	c5.633,0,10.199-4.566,10.199-10.199v-11.388h54.398c29.094,0,52.764,23.67,52.764,52.764v0.43H113.23
	c-5.633,0-10.199,4.566-10.199,10.199v20.085l-55.423-17.456c-0.803-0.253-1.624-0.398-2.445-0.448
	c-0.005,0-0.009-0.005-0.014-0.005l-34.344-2.04c-2.804-0.167-5.554,0.831-7.599,2.759C1.16,225.007,0,227.693,0,230.503v143.809
	c0,2.81,1.16,5.495,3.205,7.423c1.897,1.788,4.402,2.776,6.995,2.776c0.201,0,0.404-0.006,0.605-0.018l34.344-2.04
	c0.01-0.001,0.018-0.005,0.029-0.006c0.799-0.05,1.597-0.19,2.378-0.431l55.476-17.146v20.164c0,5.633,4.566,10.199,10.199,10.199
	h298.297c5.633,0,10.199-4.566,10.199-10.199V198.598z M111.862,157.98H46.505c-5.738,0-10.407-4.668-10.407-10.407
	s4.668-10.407,10.407-10.407h65.356V157.98z M20.398,241.326l13.945,0.828V362.66l-13.945,0.828V241.326z M54.742,358.443V246.448
	l48.288,15.209v81.863L54.742,358.443z M335.631,374.835H189.125v-71.839h146.506V374.835z M401.327,374.835h-45.299v-82.038
	c0-5.633-4.566-10.199-10.199-10.199H178.926c-5.633,0-10.199,4.566-10.199,10.199v82.038h-45.298v-144.45h277.899V374.835z
	 M422.32,177.605c-11.575,0-20.993,9.417-20.993,20.993v11.388h-84.594v-23.654c0-11.961,9.731-21.691,21.692-21.691h125.703v12.963
	H422.32z M491.602,194.286h-7.076V147.96h7.076V194.286z"/>
<path d="M310.056,333.415h3.346c5.633,0,10.199-4.566,10.199-10.199s-4.566-10.199-10.199-10.199h-3.346
	c-5.633,0-10.199,4.566-10.199,10.199S304.424,333.415,310.056,333.415z"/>
<path d="M212.334,333.415h65.084c5.633,0,10.199-4.566,10.199-10.199s-4.566-10.199-10.199-10.199h-65.084
	c-5.633,0-10.199,4.566-10.199,10.199S206.702,333.415,212.334,333.415z"/>
<path d="M146.592,261.784c6.164,0,11.18-5.015,11.18-11.18c0-6.164-5.015-11.18-11.18-11.18s-11.18,5.015-11.18,11.18
	C135.412,256.769,140.427,261.784,146.592,261.784z"/>
<path d="M181.916,261.784c6.164,0,11.18-5.015,11.18-11.18c0-6.164-5.015-11.18-11.18-11.18s-11.18,5.015-11.18,11.18
	C170.736,256.769,175.752,261.784,181.916,261.784z"/>
</svg>